<?xml version="1.0" encoding="UTF-8"?>
<svg version="1.1" xmlns="http://www.w3.org/2000/svg" width="768" height="591">
<path d="M0 0 C253.44 0 506.88 0 768 0 C768 195.03 768 390.06 768 591 C514.56 591 261.12 591 0 591 C0 395.97 0 200.94 0 0 Z " fill="#FEFEFE" transform="translate(0,0)"/>
<path d="M0 0 C11.07415652 8.5320259 19.40919183 20.32884565 22.1875 34.1875 C22.60917227 39.95192567 22.58656439 45.69562384 22.55078125 51.47265625 C22.55026146 53.14074198 22.55078375 54.80882832 22.55229187 56.47691345 C22.55220261 59.95744074 22.54186716 63.43773418 22.52368164 66.91821289 C22.50097854 71.35855157 22.50045867 75.79854991 22.50719929 80.2389307 C22.5105552 83.67836991 22.50387903 87.11773283 22.49407005 90.55715752 C22.49024704 92.19366493 22.48905767 93.83018087 22.4906559 95.46669197 C22.49343045 112.45138887 19.89882701 127.11321683 8.1875 140.1875 C7.630625 140.81398438 7.07375 141.44046875 6.5 142.0859375 C-2.25852232 151.37159311 -14.2000635 158.00931111 -27.125 158.875 C-32.73522815 158.53302563 -36.79876432 156.00504493 -40.8125 152.1875 C-44.81274778 147.23840638 -45.45376879 141.97178692 -45.1953125 135.734375 C-44.38161818 130.32081689 -40.95168369 126.74311409 -36.7890625 123.40234375 C-33.30493897 121.26091605 -29.45809184 119.96201109 -25.6171875 118.59375 C-21.4995661 116.52920445 -19.49594324 113.90006626 -17.80078125 109.65234375 C-17.57777344 108.81832031 -17.35476563 107.98429687 -17.125 107.125 C-16.89425781 106.28839844 -16.66351562 105.45179688 -16.42578125 104.58984375 C-15.88137846 102.45731053 -15.34049554 100.32415487 -14.8125 98.1875 C-15.37453125 98.4040625 -15.9365625 98.620625 -16.515625 98.84375 C-29.28516898 103.07415107 -44.1223867 103.07285922 -56.5703125 97.859375 C-71.03047434 90.40280962 -81.596487 80.38847725 -87.8125 65.1875 C-88.08102783 64.53587891 -88.34955566 63.88425781 -88.6262207 63.21289062 C-90.9460017 57.05249919 -91.31793754 51.3576893 -91.25 44.8125 C-91.24242676 43.79389893 -91.23485352 42.77529785 -91.22705078 41.72583008 C-91.0692684 34.55018671 -90.33381623 28.55000285 -86.8125 22.1875 C-86.38839844 21.35734375 -85.96429688 20.5271875 -85.52734375 19.671875 C-77.9811235 5.9667619 -66.31074975 -4.04323098 -51.625 -9.375 C-33.90679839 -14.1419363 -14.94357758 -10.44818817 0 0 Z " fill="#445045" transform="translate(576.8125,251.8125)"/>
<path d="M0 0 C5.42327448 2.7175708 8.91073859 7.70877826 10.78515625 13.33203125 C10.86807578 15.32406155 10.89253802 17.31876838 10.8828125 19.3125 C10.87958984 20.47587891 10.87636719 21.63925781 10.87304688 22.83789062 C10.86047852 24.66030273 10.86047852 24.66030273 10.84765625 26.51953125 C10.84314453 27.74607422 10.83863281 28.97261719 10.83398438 30.23632812 C10.8221869 33.26827793 10.80572546 36.30013031 10.78515625 39.33203125 C11.49655762 39.12126953 12.20795898 38.91050781 12.94091797 38.69335938 C28.42531958 34.25955733 42.22072158 36.02527476 56.73046875 42.68359375 C70.93843371 50.65608819 80.70067296 62.95251983 85.78515625 78.33203125 C89.19125738 94.1616679 86.80050037 109.36432364 78.47265625 123.26953125 C70.09151474 135.4357044 58.91535761 143.12887718 44.78515625 147.33203125 C44.03621094 147.55761719 43.28726563 147.78320312 42.515625 148.015625 C29.18650861 151.49800676 14.23811685 149.37416659 2.34057617 142.44433594 C-0.24363932 140.82990522 -2.73610252 139.1030739 -5.21484375 137.33203125 C-6.82359375 136.21828125 -6.82359375 136.21828125 -8.46484375 135.08203125 C-19.98644271 123.56043229 -27.31459855 109.27851928 -27.50811768 92.84344482 C-27.50675812 91.70458832 -27.50675812 91.70458832 -27.50537109 90.54272461 C-27.51208832 89.71545364 -27.51880554 88.88818268 -27.52572632 88.0358429 C-27.54455463 85.33112406 -27.54862197 82.62665507 -27.55078125 79.921875 C-27.55721692 78.02576092 -27.56394585 76.12964782 -27.57095337 74.23353577 C-27.58288612 70.27212216 -27.58663805 66.31079553 -27.58544922 62.34936523 C-27.58524561 57.28661162 -27.61260871 52.22441669 -27.64699364 47.16179562 C-27.66927826 43.25058959 -27.67328637 39.33951808 -27.67222977 35.42825508 C-27.67458101 33.56202827 -27.68337755 31.69579749 -27.6988945 29.82963371 C-27.71859793 27.2166753 -27.7127011 24.60492322 -27.70068359 21.99194336 C-27.71192261 21.23068146 -27.72316162 20.46941956 -27.73474121 19.68508911 C-27.65995814 13.25235367 -25.55834875 8.24645974 -21.53125 3.23828125 C-15.18070757 -1.85346769 -7.73632524 -2.33317745 0 0 Z " fill="#445045" transform="translate(228.21484375,202.66796875)"/>
<path d="M0 0 C10.1188308 8.55718447 17.75248338 21.90267587 18.9296875 35.18359375 C19.02054633 36.61260029 19.09968502 38.04239322 19.16796875 39.47265625 C19.20414307 40.22724121 19.24031738 40.98182617 19.27758789 41.75927734 C19.93084841 57.55010218 14.95171491 71.10296911 4.48046875 83.09765625 C-1.60081024 89.62224343 -8.3939981 93.53422412 -16.51953125 97.09765625 C-17.31875 97.46117187 -18.11796875 97.8246875 -18.94140625 98.19921875 C-30.58976371 102.25849483 -46.03287539 101.18302189 -57.51953125 97.09765625 C-58.63328125 96.52015625 -59.74703125 95.94265625 -60.89453125 95.34765625 C-65.6844814 93.06672761 -70.53844775 95.31704107 -75.33203125 96.97265625 C-76.36457031 97.32585937 -77.39710938 97.6790625 -78.4609375 98.04296875 C-79.47027344 98.39101563 -80.47960937 98.7390625 -81.51953125 99.09765625 C-83.26879176 99.68320337 -85.01870324 100.26681284 -86.76953125 100.84765625 C-88.00703125 101.26015625 -89.24453125 101.67265625 -90.51953125 102.09765625 C-88.62590153 95.61340902 -86.55753713 89.22299858 -84.2890625 82.859375 C-83.18849296 78.90961528 -82.87916614 76.39082075 -84.7265625 72.66015625 C-85.25636719 71.81453125 -85.78617187 70.96890625 -86.33203125 70.09765625 C-93.7819411 56.94143248 -94.3430891 41.7072077 -90.55078125 27.2578125 C-87.23960189 17.11105455 -82.08551512 9.55670042 -74.51953125 2.09765625 C-73.95492188 1.52273437 -73.3903125 0.9478125 -72.80859375 0.35546875 C-52.28821501 -18.96371709 -21.11299591 -15.94113024 0 0 Z " fill="#9ED5CB" transform="translate(458.51953125,252.90234375)"/>
<path d="M0 0 C5.27138036 2.38408282 9.68574687 6.65615959 12 12 C12.59822556 15.97722258 12.55673575 19.92104148 12.53344727 23.93701172 C12.54637062 25.73321457 12.54637062 25.73321457 12.55955505 27.56570435 C12.57832934 30.83871447 12.57912244 34.11108436 12.57023358 37.38411856 C12.56510992 40.12253038 12.57242759 42.86085218 12.57970566 45.59925473 C12.59668776 52.06348349 12.59315711 58.5274761 12.57641602 64.99169922 C12.55950496 71.64589611 12.57531827 78.2994365 12.6076389 84.95356166 C12.63439068 90.67949947 12.64159557 96.40523362 12.63312382 102.13122761 C12.62820964 105.54538551 12.63032689 108.9591488 12.65091133 112.37325668 C12.6683605 116.18405503 12.65380762 119.99345665 12.63110352 123.80419922 C12.64279572 124.92550232 12.65448792 126.04680542 12.66653442 127.2020874 C12.58400971 134.0216564 11.59232354 138.79998003 7 144 C2.01548346 148.42363768 -2.56951654 149.88089917 -9.25 149.546875 C-15.37101975 148.32962675 -19.48207115 145.09126677 -23.0919342 140.11791992 C-25.91363639 135.02885994 -25.55146249 129.80183663 -25.50170898 124.1171875 C-25.50711197 122.93747375 -25.51251495 121.75776001 -25.51808167 120.54229736 C-25.52841152 117.32309699 -25.52090671 114.10457018 -25.50437045 110.88541412 C-25.49046089 107.50677632 -25.49698672 104.12816787 -25.50050354 100.74951172 C-25.50320103 95.07706089 -25.48977007 89.40482221 -25.46655273 83.73242188 C-25.43994574 77.18681574 -25.43819753 70.64156416 -25.4499411 64.09592247 C-25.46074366 57.78316108 -25.45451245 51.47052717 -25.44038582 45.15777588 C-25.43464743 42.47850509 -25.43469168 39.79932824 -25.43945122 37.12005615 C-25.44236536 33.37409173 -25.4258453 29.62870401 -25.40405273 25.8828125 C-25.40855438 24.77818665 -25.41305603 23.67356079 -25.41769409 22.53546143 C-25.35235734 15.76714516 -24.94373218 10.29121058 -20.24609375 5.0390625 C-19.64925781 4.57242188 -19.05242187 4.10578125 -18.4375 3.625 C-17.83808594 3.14289063 -17.23867188 2.66078125 -16.62109375 2.1640625 C-11.75815771 -1.32787711 -5.72723531 -0.70334469 0 0 Z " fill="#434F44" transform="translate(347,202)"/>
<path d="M0 0 C5.53465406 1.93216308 9.33028667 5.68201601 12.15234375 10.76171875 C13.99649697 15.63130306 13.85664897 20.3480335 12.265625 25.2734375 C9.6694492 30.99779234 5.81929272 34.57358113 0 37 C-5.48757474 37.65728611 -10.40058882 37.75608529 -15.4375 35.375 C-20.56365799 30.62392674 -24.72386597 26.36883511 -25.3125 19.1875 C-25.12806596 13.94569041 -23.83337606 9.87836688 -20.08984375 6.04296875 C-13.43880486 0.11618092 -8.98844348 -0.96989478 0 0 Z " fill="#FCFCFC" transform="translate(264,277)"/>
<path d="M0 0 C4.79171654 2.20382383 7.65680509 5.02221577 10.671875 9.31640625 C12.59758493 15.09353604 12.57375119 21.12633565 9.984375 26.69140625 C7.04441628 31.82598205 3.20272302 34.41366553 -2.328125 36.31640625 C-7.53034168 36.96762988 -11.94205139 36.98377502 -16.703125 34.69140625 C-21.8945017 29.99444638 -26.05159947 25.69001775 -26.640625 18.50390625 C-26.45619096 13.26209666 -25.16150106 9.19477313 -21.41796875 5.359375 C-14.77726278 -0.55820509 -8.95953846 -2.63073696 0 0 Z " fill="#FCFCFC" transform="translate(549.328125,279.68359375)"/>
<path d="M0 0 C5.18436427 2.41133222 8.47199977 5.89148916 11 11 C11.8054557 16.32616651 11.9319464 22.04537452 9.4375 26.9375 C5.69128182 31.64428695 3.04267849 34.4877123 -3.0625 35.515625 C-9.59010799 35.84804948 -14.45151261 35.37029794 -19.40625 30.8984375 C-23.28271622 26.28088215 -25.3874621 21.52662073 -25.125 15.4375 C-24.0901747 9.40805873 -20.55261726 4.87019166 -15.69140625 1.30859375 C-10.66837964 -1.13366157 -5.43472137 -0.81291369 0 0 Z " fill="#445045" transform="translate(183,316)"/>
<path d="M0 0 C0.66 0.33 1.32 0.66 2 1 C-0.31 3.31 -2.62 5.62 -5 8 C-5.33 7.34 -5.66 6.68 -6 6 C-2.25 1.125 -2.25 1.125 0 0 Z " fill="#3A473C" transform="translate(167,318)"/>
</svg>
